<svg width="52" height="52" viewBox="0 0 52 52" fill="none" xmlns="http://www.w3.org/2000/svg">
<circle cx="26" cy="26" r="26" fill="#F2F4EF"/>
<path d="M29.5925 17.0272C28.6803 16.0423 27.4063 15.5 26 15.5C24.5863 15.5 23.308 16.0391 22.4 17.0178C21.4822 18.0073 21.035 19.3522 21.14 20.8044C21.3481 23.6694 23.5283 26 26 26C28.4717 26 30.6481 23.6698 30.8595 20.8053C30.966 19.3662 30.516 18.0242 29.5925 17.0272ZM34.25 36.5H17.75C17.5341 36.5028 17.3202 36.4574 17.1239 36.3672C16.9277 36.2769 16.7541 36.1441 16.6156 35.9783C16.311 35.6141 16.1881 35.1167 16.2791 34.6137C16.6747 32.4191 17.9094 30.5755 19.85 29.2812C21.5741 28.1323 23.758 27.5 26 27.5C28.242 27.5 30.426 28.1328 32.15 29.2812C34.0906 30.575 35.3253 32.4186 35.7209 34.6133C35.8119 35.1162 35.6891 35.6136 35.3844 35.9778C35.246 36.1437 35.0724 36.2766 34.8762 36.367C34.6799 36.4573 34.466 36.5028 34.25 36.5Z" fill="#4E7302"/>
</svg>
