<svg width="20" height="20" viewBox="0 0 20 20" fill="none" xmlns="http://www.w3.org/2000/svg">
<path d="M19.75 10C19.75 4.61547 15.3845 0.25 10 0.25C4.61547 0.25 0.25 4.61547 0.25 10C0.25 15.3845 4.61547 19.75 10 19.75C15.3845 19.75 19.75 15.3845 19.75 10ZM9.78203 14.2825C9.71209 14.2131 9.6565 14.1307 9.61844 14.0398C9.58037 13.949 9.56058 13.8515 9.56019 13.753C9.5598 13.6545 9.57881 13.5569 9.61615 13.4657C9.65349 13.3745 9.70843 13.2916 9.77781 13.2217L12.2303 10.75H5.96875C5.76984 10.75 5.57907 10.671 5.43842 10.5303C5.29777 10.3897 5.21875 10.1989 5.21875 10C5.21875 9.80109 5.29777 9.61032 5.43842 9.46967C5.57907 9.32902 5.76984 9.25 5.96875 9.25H12.2303L9.77781 6.77828C9.70844 6.70829 9.65353 6.62532 9.61622 6.53411C9.57891 6.4429 9.55993 6.34523 9.56036 6.24669C9.5608 6.14814 9.58064 6.05064 9.61875 5.95977C9.65687 5.86889 9.71251 5.78641 9.7825 5.71703C9.85249 5.64766 9.93546 5.59275 10.0267 5.55544C10.1179 5.51813 10.2155 5.49915 10.3141 5.49958C10.5131 5.50046 10.7036 5.58037 10.8438 5.72172L14.5652 9.47172C14.7046 9.6122 14.7828 9.80209 14.7828 10C14.7828 10.1979 14.7046 10.3878 14.5652 10.5283L10.8438 14.2783C10.7744 14.3484 10.6918 14.4041 10.6009 14.4422C10.51 14.4804 10.4124 14.5002 10.3138 14.5006C10.2151 14.501 10.1174 14.4819 10.0262 14.4445C9.93494 14.4071 9.85197 14.352 9.78203 14.2825Z" fill="#FAB73A"/>
</svg>
