<svg width="52" height="52" viewBox="0 0 52 52" fill="none" xmlns="http://www.w3.org/2000/svg">
<circle cx="26" cy="26" r="26" fill="#F2F4EF"/>
<path d="M22.25 35C23.0784 35 23.75 34.3284 23.75 33.5C23.75 32.6716 23.0784 32 22.25 32C21.4216 32 20.75 32.6716 20.75 33.5C20.75 34.3284 21.4216 35 22.25 35Z" fill="#4E7302"/>
<path d="M32.75 35C33.5784 35 34.25 34.3284 34.25 33.5C34.25 32.6716 33.5784 32 32.75 32C31.9216 32 31.25 32.6716 31.25 33.5C31.25 34.3284 31.9216 35 32.75 35Z" fill="#4E7302"/>
<path d="M35.4125 19.6616C35.3071 19.5327 35.1744 19.4289 35.0239 19.3577C34.8734 19.2865 34.709 19.2497 34.5425 19.25H20.2761L19.9887 17.6197C19.9581 17.446 19.8673 17.2887 19.7322 17.1754C19.5971 17.0621 19.4263 17 19.25 17H16.25C16.0511 17 15.8603 17.079 15.7197 17.2197C15.579 17.3603 15.5 17.5511 15.5 17.75C15.5 17.9489 15.579 18.1397 15.7197 18.2803C15.8603 18.421 16.0511 18.5 16.25 18.5H18.6209L20.7613 30.6303C20.7919 30.804 20.8827 30.9613 21.0178 31.0746C21.1529 31.1879 21.3237 31.25 21.5 31.25H33.5C33.6989 31.25 33.8897 31.171 34.0303 31.0303C34.171 30.8897 34.25 30.6989 34.25 30.5C34.25 30.3011 34.171 30.1103 34.0303 29.9697C33.8897 29.829 33.6989 29.75 33.5 29.75H22.1291L21.8647 28.25H33.1925C33.4526 28.2497 33.7046 28.1595 33.9058 27.9947C34.1071 27.8299 34.2452 27.6007 34.2969 27.3458L35.6469 20.5958C35.6794 20.4324 35.6753 20.2639 35.6347 20.1023C35.5942 19.9408 35.5183 19.7902 35.4125 19.6616Z" fill="#4E7302"/>
<circle cx="43" cy="9" r="9" fill="#FAB73A"/>
<path d="M43.2443 13.18C42.6843 13.18 42.1843 13.054 41.7443 12.802C41.3083 12.546 40.9623 12.2 40.7063 11.764C40.4543 11.324 40.3283 10.824 40.3283 10.264V7.096C40.3283 6.536 40.4543 6.036 40.7063 5.596C40.9623 5.156 41.3083 4.81 41.7443 4.558C42.1843 4.306 42.6843 4.18 43.2443 4.18C43.8043 4.18 44.3043 4.306 44.7443 4.558C45.1843 4.81 45.5303 5.156 45.7823 5.596C46.0343 6.036 46.1603 6.536 46.1603 7.096V10.264C46.1603 10.824 46.0343 11.324 45.7823 11.764C45.5303 12.2 45.1843 12.546 44.7443 12.802C44.3043 13.054 43.8043 13.18 43.2443 13.18ZM43.2443 12.154C43.5843 12.154 43.8923 12.072 44.1683 11.908C44.4443 11.744 44.6643 11.524 44.8283 11.248C44.9923 10.968 45.0743 10.66 45.0743 10.324V7.03C45.0743 6.69 44.9923 6.382 44.8283 6.106C44.6643 5.83 44.4443 5.61 44.1683 5.446C43.8923 5.282 43.5843 5.2 43.2443 5.2C42.9083 5.2 42.6003 5.282 42.3203 5.446C42.0443 5.61 41.8243 5.83 41.6603 6.106C41.4963 6.382 41.4143 6.69 41.4143 7.03V10.324C41.4143 10.66 41.4963 10.968 41.6603 11.248C41.8243 11.524 42.0443 11.744 42.3203 11.908C42.6003 12.072 42.9083 12.154 43.2443 12.154Z" fill="black"/>
</svg>
