<svg width="40" height="40" viewBox="0 0 40 40" fill="none" xmlns="http://www.w3.org/2000/svg">
<circle cx="20" cy="20" r="20" fill="white"/>
<path d="M16.875 27.5C17.5654 27.5 18.125 26.9404 18.125 26.25C18.125 25.5596 17.5654 25 16.875 25C16.1846 25 15.625 25.5596 15.625 26.25C15.625 26.9404 16.1846 27.5 16.875 27.5Z" fill="black"/>
<path d="M25.625 27.5C26.3154 27.5 26.875 26.9404 26.875 26.25C26.875 25.5596 26.3154 25 25.625 25C24.9346 25 24.375 25.5596 24.375 26.25C24.375 26.9404 24.9346 27.5 25.625 27.5Z" fill="black"/>
<path d="M27.8438 14.718C27.7559 14.6106 27.6453 14.5241 27.5199 14.4647C27.3945 14.4054 27.2575 14.3748 27.1187 14.375H15.2301L14.9906 13.0164C14.9651 12.8717 14.8894 12.7406 14.7768 12.6462C14.6642 12.5517 14.522 12.5 14.375 12.5H11.875C11.7092 12.5 11.5503 12.5658 11.4331 12.6831C11.3158 12.8003 11.25 12.9592 11.25 13.125C11.25 13.2908 11.3158 13.4497 11.4331 13.5669C11.5503 13.6842 11.7092 13.75 11.875 13.75H13.8508L15.6344 23.8586C15.6599 24.0033 15.7356 24.1344 15.8482 24.2288C15.9608 24.3233 16.103 24.375 16.25 24.375H26.25C26.4158 24.375 26.5747 24.3092 26.6919 24.1919C26.8092 24.0747 26.875 23.9158 26.875 23.75C26.875 23.5842 26.8092 23.4253 26.6919 23.3081C26.5747 23.1908 26.4158 23.125 26.25 23.125H16.7742L16.5539 21.875H25.9937C26.2105 21.8747 26.4205 21.7996 26.5882 21.6623C26.7559 21.525 26.871 21.3339 26.9141 21.1215L28.0391 15.4965C28.0662 15.3604 28.0627 15.2199 28.0289 15.0853C27.9952 14.9506 27.9319 14.8252 27.8438 14.718Z" fill="black"/>
</svg>
