<svg width="52" height="52" viewBox="0 0 52 52" fill="none" xmlns="http://www.w3.org/2000/svg">
<circle cx="26" cy="26" r="26" fill="#F2F4EF"/>
<path d="M23.5633 27.3438C23.6308 27.2721 23.7118 27.2143 23.8016 27.1739C23.8914 27.1335 23.9883 27.1112 24.0868 27.1082C24.1853 27.1053 24.2834 27.1217 24.3754 27.1567C24.4675 27.1916 24.5519 27.2444 24.6236 27.3119C28.075 30.5632 31.5381 32.5413 35.6134 33.5496C36.1633 32.0496 36.212 30.3986 35.7372 28.788C35.1072 26.651 33.64 24.7891 31.4954 23.4039C29.5811 22.1674 27.6676 21.8453 25.8165 21.5341C23.4812 21.1413 21.2753 20.77 19.1701 18.5411C18.9358 18.2946 18.6165 18.1957 18.3114 18.2758C17.9626 18.3696 17.7287 18.6452 17.6167 19.1008C17.3542 20.1672 17.5229 23.156 18.2612 26.3111C19.4467 31.3802 21.3386 33.9452 22.7172 35.2047C24.4984 36.8308 26.8243 37.7313 29.1358 37.7313C29.5714 37.732 30.0066 37.7 30.4375 37.6357C32.3926 37.3394 34.0201 36.3574 34.9375 34.9286C30.7426 33.8374 27.159 31.7622 23.5937 28.4055C23.5219 28.3379 23.4641 28.2567 23.4237 28.1667C23.3833 28.0767 23.361 27.9796 23.3582 27.881C23.3553 27.7823 23.372 27.6841 23.4072 27.5919C23.4424 27.4998 23.4954 27.4154 23.5633 27.3438ZM37.9108 34.0089C37.1219 33.8875 36.3578 33.7352 35.6139 33.551C35.4609 33.9685 35.2706 34.3714 35.0453 34.7547C35.0111 34.8133 34.975 34.8714 34.938 34.9286C35.8428 35.1629 36.759 35.3506 37.683 35.4911C37.7813 35.5084 37.8821 35.5059 37.9794 35.4837C38.0767 35.4615 38.1686 35.4202 38.2498 35.362C38.3309 35.3038 38.3996 35.2301 38.4519 35.145C38.5041 35.0599 38.5388 34.9653 38.554 34.8666C38.5692 34.768 38.5646 34.6673 38.5404 34.5704C38.5161 34.4736 38.4728 34.3825 38.4129 34.3027C38.3531 34.2228 38.2778 34.1557 38.1917 34.1052C38.1055 34.0548 38.0102 34.0221 37.9112 34.0089H37.9108Z" fill="#547C0E"/>
</svg>
