<svg width="40" height="40" viewBox="0 0 40 40" fill="none" xmlns="http://www.w3.org/2000/svg">
<circle cx="20" cy="20" r="20" fill="#F84D4D"/>
<path d="M19.9999 27.5C19.749 27.4997 19.504 27.4239 19.2968 27.2824C16.2269 25.1984 14.8976 23.7695 14.1644 22.8762C12.6019 20.9719 11.8539 19.0168 11.8749 16.8996C11.8996 14.4734 13.846 12.5 16.214 12.5C17.9359 12.5 19.1285 13.4699 19.823 14.2777C19.845 14.3031 19.8722 14.3234 19.9027 14.3373C19.9332 14.3512 19.9664 14.3584 19.9999 14.3584C20.0335 14.3584 20.0667 14.3512 20.0972 14.3373C20.1277 14.3234 20.1549 14.3031 20.1769 14.2777C20.8714 13.4691 22.064 12.5 23.7859 12.5C26.1539 12.5 28.1003 14.4734 28.1249 16.9C28.146 19.0176 27.3972 20.9727 25.8355 22.8766C25.1023 23.7699 23.773 25.1988 20.7031 27.2828C20.4958 27.4241 20.2508 27.4998 19.9999 27.5Z" fill="white"/>
</svg>
