<svg width="72" height="72" viewBox="0 0 72 72" fill="none" xmlns="http://www.w3.org/2000/svg">
<rect width="72" height="72" rx="16" fill="#FAF9F7"/>
<path d="M31 48C32.1046 48 33 47.1046 33 46C33 44.8954 32.1046 44 31 44C29.8954 44 29 44.8954 29 46C29 47.1046 29.8954 48 31 48Z" fill="#4E7302"/>
<path d="M45 48C46.1046 48 47 47.1046 47 46C47 44.8954 46.1046 44 45 44C43.8954 44 43 44.8954 43 46C43 47.1046 43.8954 48 45 48Z" fill="#4E7302"/>
<path d="M48.55 27.5487C48.4095 27.3769 48.2325 27.2385 48.0319 27.1436C47.8312 27.0487 47.612 26.9996 47.39 27H28.3681L27.985 24.8263C27.9441 24.5947 27.823 24.385 27.6429 24.2339C27.4627 24.0828 27.2351 24 27 24H23C22.7348 24 22.4804 24.1054 22.2929 24.2929C22.1054 24.4804 22 24.7348 22 25C22 25.2652 22.1054 25.5196 22.2929 25.7071C22.4804 25.8946 22.7348 26 23 26H26.1613L29.015 42.1737C29.0559 42.4053 29.177 42.615 29.3571 42.7661C29.5373 42.9172 29.7649 43 30 43H46C46.2652 43 46.5196 42.8946 46.7071 42.7071C46.8946 42.5196 47 42.2652 47 42C47 41.7348 46.8946 41.4804 46.7071 41.2929C46.5196 41.1054 46.2652 41 46 41H30.8387L30.4862 39H45.59C45.9368 38.9996 46.2728 38.8793 46.5411 38.6596C46.8094 38.4399 46.9936 38.1343 47.0625 37.7944L48.8625 28.7944C48.9059 28.5766 48.9003 28.3518 48.8463 28.1364C48.7923 27.921 48.6911 27.7203 48.55 27.5487Z" fill="#4E7302"/>
</svg>
