<svg width="52" height="52" viewBox="0 0 52 52" fill="none" xmlns="http://www.w3.org/2000/svg">
<circle cx="26" cy="26" r="26" fill="#F2F4EF"/>
<path d="M32.4687 36.5C32.3109 36.5006 32.1568 36.4514 32.0286 36.3594L26 31.9887L19.9714 36.3594C19.8426 36.4528 19.6874 36.5028 19.5283 36.5022C19.3692 36.5016 19.2144 36.4505 19.0863 36.3561C18.9582 36.2618 18.8634 36.1291 18.8156 35.9774C18.7679 35.8256 18.7696 35.6626 18.8206 35.5119L21.1719 28.5476L15.0781 24.3687C14.9461 24.2783 14.8465 24.1481 14.7938 23.997C14.7411 23.8459 14.7381 23.682 14.7852 23.5291C14.8324 23.3762 14.9271 23.2424 15.0557 23.1472C15.1843 23.052 15.34 23.0004 15.5 23H23.0178L25.2865 16.018C25.3354 15.8672 25.4308 15.7358 25.5589 15.6426C25.6871 15.5495 25.8415 15.4993 26 15.4993C26.1584 15.4993 26.3128 15.5495 26.441 15.6426C26.5692 15.7358 26.6645 15.8672 26.7134 16.018L28.9822 23.0023H36.5C36.6602 23.0022 36.8162 23.0535 36.9452 23.1485C37.0741 23.2435 37.1693 23.3773 37.2167 23.5303C37.2641 23.6833 37.2613 23.8475 37.2087 23.9988C37.156 24.1501 37.0563 24.2805 36.9242 24.3711L30.8281 28.5476L33.1779 35.51C33.216 35.6227 33.2267 35.7429 33.2092 35.8605C33.1916 35.9782 33.1464 36.09 33.0771 36.1868C33.0078 36.2835 32.9165 36.3623 32.8107 36.4168C32.7049 36.4712 32.5877 36.4998 32.4687 36.5Z" fill="#547C0E"/>
</svg>
