<svg width="72" height="72" viewBox="0 0 72 72" fill="none" xmlns="http://www.w3.org/2000/svg">
<rect width="72" height="72" rx="16" fill="#FAF9F7"/>
<path d="M22 43.5C22 44.4283 22.3687 45.3185 23.0251 45.9749C23.6815 46.6313 24.5717 47 25.5 47H46.5C47.4283 47 48.3185 46.6313 48.9749 45.9749C49.6313 45.3185 50 44.4283 50 43.5V33.875H22V43.5ZM26.125 38.75C26.125 38.2527 26.3225 37.7758 26.6742 37.4242C27.0258 37.0725 27.5027 36.875 28 36.875H31C31.4973 36.875 31.9742 37.0725 32.3258 37.4242C32.6775 37.7758 32.875 38.2527 32.875 38.75V40C32.875 40.4973 32.6775 40.9742 32.3258 41.3258C31.9742 41.6775 31.4973 41.875 31 41.875H28C27.5027 41.875 27.0258 41.6775 26.6742 41.3258C26.3225 40.9742 26.125 40.4973 26.125 40V38.75ZM46.5 25H25.5C24.5717 25 23.6815 25.3687 23.0251 26.0251C22.3687 26.6815 22 27.5717 22 28.5V30.125H50V28.5C50 27.5717 49.6313 26.6815 48.9749 26.0251C48.3185 25.3687 47.4283 25 46.5 25Z" fill="#4E7302"/>
</svg>
