<svg width="52" height="52" viewBox="0 0 52 52" fill="none" xmlns="http://www.w3.org/2000/svg">
<circle cx="26" cy="26" r="26" fill="#FAB73A"/>
<path d="M35.4073 33.7527L30.9969 29.3422C32.0587 27.9286 32.6319 26.208 32.63 24.44C32.63 19.9241 28.9559 16.25 24.44 16.25C19.9241 16.25 16.25 19.9241 16.25 24.44C16.25 28.9559 19.9241 32.63 24.44 32.63C26.208 32.6319 27.9286 32.0587 29.3422 30.9969L33.7527 35.4073C33.9759 35.6069 34.2671 35.7135 34.5664 35.7051C34.8658 35.6967 35.1506 35.574 35.3623 35.3623C35.574 35.1506 35.6967 34.8658 35.7051 34.5664C35.7135 34.2671 35.6069 33.9759 35.4073 33.7527ZM18.59 24.44C18.59 23.283 18.9331 22.1519 19.5759 21.1899C20.2187 20.2279 21.1324 19.4781 22.2013 19.0353C23.2703 18.5925 24.4465 18.4767 25.5813 18.7024C26.7161 18.9281 27.7584 19.4853 28.5766 20.3034C29.3947 21.1216 29.9519 22.1639 30.1776 23.2987C30.4033 24.4335 30.2875 25.6098 29.8447 26.6787C29.4019 27.7476 28.6521 28.6613 27.6901 29.3041C26.7281 29.9469 25.597 30.29 24.44 30.29C22.8891 30.2881 21.4022 29.6712 20.3055 28.5745C19.2088 27.4778 18.5919 25.9909 18.59 24.44Z" fill="black"/>
</svg>
