<svg width="72" height="72" viewBox="0 0 72 72" fill="none" xmlns="http://www.w3.org/2000/svg">
<rect width="72" height="72" rx="16" fill="#FAF9F7"/>
<path d="M45.6975 26.0912C43.0269 23.4913 39.4925 22 36 22C32.5075 22 28.9731 23.4913 26.3025 26.0912C23.5281 28.7919 22 32.3125 22 36C22 37.6669 22.5469 39.8181 24.055 43.8469C25.5631 47.8756 28.5625 49.5625 29.8294 49.8381C30.1925 49.9175 30.6181 50 31 50C31.658 50.0006 32.3046 49.8281 32.875 49.5L33.75 49C34.6919 48.4487 34.9669 47.2419 34.425 46.2906L28.9925 36.755C28.8631 36.5268 28.6896 36.3266 28.4822 36.1659C28.2749 36.0052 28.0377 35.8873 27.7844 35.819C27.5311 35.7506 27.2668 35.7332 27.0067 35.7677C26.7467 35.8022 26.4961 35.8879 26.2694 36.02L25.4138 36.52C25.0849 36.7126 24.7894 36.9573 24.5388 37.2444C24.5076 37.2809 24.4667 37.3077 24.4208 37.3215C24.3748 37.3354 24.3259 37.3358 24.2798 37.3226C24.2337 37.3094 24.1923 37.2833 24.1607 37.2472C24.129 37.2112 24.1084 37.1668 24.1013 37.1194C24.0383 36.7495 24.0044 36.3752 24 36C24 32.8556 25.3125 29.845 27.6975 27.5244C30 25.2844 33.0244 24 36 24C38.9756 24 42 25.2844 44.3025 27.5244C46.6875 29.845 48 32.8556 48 36C47.9944 36.3753 47.9593 36.7496 47.895 37.1194C47.8879 37.1668 47.8672 37.2112 47.8356 37.2472C47.8039 37.2833 47.7626 37.3094 47.7165 37.3226C47.6703 37.3358 47.6214 37.3354 47.5755 37.3215C47.5296 37.3077 47.4886 37.2809 47.4575 37.2444C47.2068 36.9573 46.9114 36.7126 46.5825 36.52L45.7269 36.02C45.5002 35.8879 45.2496 35.8022 44.9895 35.7677C44.7295 35.7332 44.4651 35.7506 44.2119 35.819C43.9586 35.8873 43.7214 36.0052 43.514 36.1659C43.3066 36.3266 43.1332 36.5268 43.0037 36.755L37.575 46.2906C37.0331 47.2419 37.3081 48.4487 38.25 49L39.125 49.5C39.6954 49.8281 40.342 50.0006 41 50C41.3819 50 41.8075 49.9175 42.1706 49.8381C43.4375 49.5625 46.4375 47.875 47.945 43.8469C49.4525 39.8187 50 37.6669 50 36C50 32.3125 48.4719 28.7919 45.6975 26.0912Z" fill="#4E7302"/>
</svg>
