<svg width="40" height="40" viewBox="0 0 40 40" fill="none" xmlns="http://www.w3.org/2000/svg">
<circle cx="20" cy="20" r="20" fill="white"/>
<path d="M20 22.5C21.3807 22.5 22.5 21.3807 22.5 20C22.5 18.6193 21.3807 17.5 20 17.5C18.6193 17.5 17.5 18.6193 17.5 20C17.5 21.3807 18.6193 22.5 20 22.5Z" fill="black"/>
<path d="M29.1735 19.3203C28.1399 17.7219 26.7989 16.3641 25.2958 15.3934C23.6329 14.3184 21.7969 13.75 19.9868 13.75C18.3258 13.75 16.6926 14.2246 15.1325 15.1605C13.5415 16.1148 12.1 17.509 10.8481 19.3039C10.7068 19.5068 10.6289 19.7471 10.6245 19.9942C10.62 20.2414 10.6892 20.4844 10.8231 20.6922C11.8547 22.3066 13.1825 23.6664 14.6622 24.6238C16.3282 25.7031 18.1211 26.25 19.9868 26.25C21.8114 26.25 23.6512 25.6863 25.3071 24.6203C26.8094 23.6527 28.1477 22.2898 29.1774 20.6781C29.3067 20.4751 29.3751 20.2393 29.3744 19.9986C29.3737 19.758 29.304 19.5225 29.1735 19.3203ZM20.0001 23.75C19.2584 23.75 18.5333 23.5301 17.9167 23.118C17.3 22.706 16.8193 22.1203 16.5355 21.4351C16.2517 20.7498 16.1774 19.9958 16.3221 19.2684C16.4668 18.541 16.824 17.8728 17.3484 17.3483C17.8728 16.8239 18.541 16.4668 19.2685 16.3221C19.9959 16.1774 20.7499 16.2516 21.4351 16.5355C22.1203 16.8193 22.706 17.2999 23.1181 17.9166C23.5301 18.5333 23.7501 19.2583 23.7501 20C23.7489 20.9942 23.3535 21.9474 22.6505 22.6504C21.9474 23.3534 20.9943 23.7489 20.0001 23.75Z" fill="black"/>
</svg>
